<?xml version="1.0" encoding="UTF-8" standalone="no"?>
<!-- Created with Inkscape (http://www.inkscape.org/) -->

<svg
   xmlns:dc="http://purl.org/dc/elements/1.1/"
   xmlns:cc="http://creativecommons.org/ns#"
   xmlns:rdf="http://www.w3.org/1999/02/22-rdf-syntax-ns#"
   xmlns:svg="http://www.w3.org/2000/svg"
   xmlns="http://www.w3.org/2000/svg"
   xmlns:xlink="http://www.w3.org/1999/xlink"
   xmlns:sodipodi="http://sodipodi.sourceforge.net/DTD/sodipodi-0.dtd"
   xmlns:inkscape="http://www.inkscape.org/namespaces/inkscape"
   version="1.0"
   width="48"
   height="48"
   id="svg11300"
   inkscape:version="0.48.4 r9939"
   sodipodi:docname="The_GIMP_icon_-_gnome.svg">
  <metadata
     id="metadata82">
    <rdf:RDF>
      <cc:Work
         rdf:about="">
        <dc:format>image/svg+xml</dc:format>
        <dc:type
           rdf:resource="http://purl.org/dc/dcmitype/StillImage" />
      </cc:Work>
    </rdf:RDF>
  </metadata>
  <sodipodi:namedview
     pagecolor="#ffffff"
     bordercolor="#666666"
     borderopacity="1"
     objecttolerance="10"
     gridtolerance="10"
     guidetolerance="10"
     inkscape:pageopacity="0"
     inkscape:pageshadow="2"
     inkscape:window-width="1440"
     inkscape:window-height="845"
     id="namedview80"
     showgrid="false"
     inkscape:zoom="4.9166667"
     inkscape:cx="24"
     inkscape:cy="24"
     inkscape:window-x="1438"
     inkscape:window-y="-3"
     inkscape:window-maximized="1"
     inkscape:current-layer="svg11300" />
  <defs
     id="defs3">
    <linearGradient
       id="linearGradient8542">
      <stop
         style="stop-color:#5b676b;stop-opacity:1"
         offset="0"
         id="stop8544" />
      <stop
         style="stop-color:#141718;stop-opacity:1"
         offset="1"
         id="stop8546" />
    </linearGradient>
    <linearGradient
       id="linearGradient8534">
      <stop
         style="stop-color:black;stop-opacity:1"
         offset="0"
         id="stop8536" />
      <stop
         style="stop-color:black;stop-opacity:0"
         offset="1"
         id="stop8538" />
    </linearGradient>
    <linearGradient
       id="linearGradient8524">
      <stop
         style="stop-color:white;stop-opacity:1"
         offset="0"
         id="stop8526" />
      <stop
         style="stop-color:white;stop-opacity:0"
         offset="1"
         id="stop8528" />
    </linearGradient>
    <linearGradient
       id="linearGradient2446">
      <stop
         style="stop-color:white;stop-opacity:1"
         offset="0"
         id="stop2448" />
      <stop
         style="stop-color:white;stop-opacity:0"
         offset="1"
         id="stop2450" />
    </linearGradient>
    <linearGradient
       x1="13.236155"
       y1="37.752247"
       x2="7.7521091"
       y2="42.282146"
       id="linearGradient2452"
       xlink:href="#linearGradient2446"
       gradientUnits="userSpaceOnUse"
       gradientTransform="matrix(0.755165,0.395143,-0.395143,0.755165,-25.91245,6.532586)" />
    <linearGradient
       id="linearGradient6963">
      <stop
         style="stop-color:#696969;stop-opacity:1"
         offset="0"
         id="stop6965" />
      <stop
         style="stop-color:black;stop-opacity:1"
         offset="1"
         id="stop6967" />
    </linearGradient>
    <radialGradient
       cx="15.415101"
       cy="35.356506"
       r="7.5791559"
       fx="15.415101"
       fy="35.356506"
       id="radialGradient6969"
       xlink:href="#linearGradient6963"
       gradientUnits="userSpaceOnUse"
       gradientTransform="matrix(1.572694,0,0,1.532639,-55.36682,-21.35823)" />
    <linearGradient
       id="linearGradient6939">
      <stop
         style="stop-color:#bdbdbd;stop-opacity:1"
         offset="0"
         id="stop6941" />
      <stop
         style="stop-color:#e2e2e2;stop-opacity:1"
         offset="0.33333334"
         id="stop6947" />
      <stop
         style="stop-color:#a3a3a3;stop-opacity:1"
         offset="0.66666669"
         id="stop6949" />
      <stop
         style="stop-color:#ddd;stop-opacity:1"
         offset="1"
         id="stop6943" />
    </linearGradient>
    <linearGradient
       x1="19.394735"
       y1="30.001331"
       x2="23.109331"
       y2="33.438831"
       id="linearGradient6945"
       xlink:href="#linearGradient6939"
       gradientUnits="userSpaceOnUse"
       gradientTransform="translate(-46.40695,-1.802856)" />
    <linearGradient
       id="linearGradient6951">
      <stop
         style="stop-color:#6e3d09;stop-opacity:1"
         offset="0"
         id="stop6953" />
      <stop
         style="stop-color:#ea8113;stop-opacity:1"
         offset="0.24242425"
         id="stop6959" />
      <stop
         style="stop-color:#5c3307;stop-opacity:1"
         offset="0.62121212"
         id="stop6961" />
      <stop
         style="stop-color:#e07c12;stop-opacity:1"
         offset="1"
         id="stop6955" />
    </linearGradient>
    <linearGradient
       x1="37.017639"
       y1="19.239889"
       x2="27.753893"
       y2="11.182488"
       id="linearGradient6957"
       xlink:href="#linearGradient6951"
       gradientUnits="userSpaceOnUse"
       gradientTransform="translate(-49.30496,1.877723)" />
    <linearGradient
       id="linearGradient6500">
      <stop
         style="stop-color:#857c63;stop-opacity:1"
         offset="0"
         id="stop6502" />
      <stop
         style="stop-color:#221f19;stop-opacity:1"
         offset="1"
         id="stop6504" />
    </linearGradient>
    <linearGradient
       id="linearGradient6492">
      <stop
         style="stop-color:black;stop-opacity:1"
         offset="0"
         id="stop6494" />
      <stop
         style="stop-color:black;stop-opacity:0"
         offset="1"
         id="stop6496" />
    </linearGradient>
    <linearGradient
       id="linearGradient6482">
      <stop
         style="stop-color:black;stop-opacity:1"
         offset="0"
         id="stop6484" />
      <stop
         style="stop-color:black;stop-opacity:0"
         offset="1"
         id="stop6486" />
    </linearGradient>
    <linearGradient
       id="linearGradient6468">
      <stop
         style="stop-color:white;stop-opacity:1"
         offset="0"
         id="stop6470" />
      <stop
         style="stop-color:#b9b9b0;stop-opacity:1"
         offset="1"
         id="stop6472" />
    </linearGradient>
    <linearGradient
       id="linearGradient6452">
      <stop
         style="stop-color:white;stop-opacity:1"
         offset="0"
         id="stop6454" />
      <stop
         style="stop-color:white;stop-opacity:0"
         offset="1"
         id="stop6456" />
    </linearGradient>
    <linearGradient
       x1="6.3051529"
       y1="23.362427"
       x2="5.9846287"
       y2="31.57"
       id="linearGradient6458"
       xlink:href="#linearGradient6452"
       gradientUnits="userSpaceOnUse" />
    <radialGradient
       cx="69.473244"
       cy="19.597878"
       r="3.5153139"
       fx="69.473244"
       fy="19.597878"
       id="radialGradient6474"
       xlink:href="#linearGradient6468"
       gradientUnits="userSpaceOnUse"
       gradientTransform="matrix(1.318488,0,0,1.318488,-22.1264,-6.241691)" />
    <radialGradient
       cx="23"
       cy="33.9375"
       r="18.25"
       fx="23"
       fy="33.9375"
       id="radialGradient6498"
       xlink:href="#linearGradient6492"
       gradientUnits="userSpaceOnUse"
       gradientTransform="matrix(1,0,0,0.284247,0,24.29088)" />
    <linearGradient
       x1="14.96875"
       y1="19.110678"
       x2="39.524544"
       y2="46.98568"
       id="linearGradient8530"
       xlink:href="#linearGradient8524"
       gradientUnits="userSpaceOnUse" />
    <radialGradient
       cx="6.0242186"
       cy="25.271027"
       r="4.8310289"
       fx="6.0242186"
       fy="25.271027"
       id="radialGradient8548"
       xlink:href="#linearGradient8542"
       gradientUnits="userSpaceOnUse"
       gradientTransform="matrix(0.916159,0.09318684,-0.108765,1.069309,3.253668,-3.029272)" />
    <linearGradient
       x1="26.162951"
       y1="30.543303"
       x2="24.328892"
       y2="30.985245"
       id="linearGradient4330"
       xlink:href="#linearGradient8534"
       gradientUnits="userSpaceOnUse" />
    <linearGradient
       x1="32.350136"
       y1="28.083355"
       x2="21.213203"
       y2="30.293064"
       id="linearGradient4351"
       xlink:href="#linearGradient6482"
       gradientUnits="userSpaceOnUse"
       gradientTransform="translate(-3.836549,0.345971)" />
    <radialGradient
       cx="18.557627"
       cy="22.300018"
       r="19.2292"
       fx="18.557627"
       fy="22.300018"
       id="radialGradient4354"
       xlink:href="#linearGradient6500"
       gradientUnits="userSpaceOnUse"
       gradientTransform="matrix(1.77275,0,0,1.29668,-16.3404,-6.615959)" />
    <radialGradient
       cx="69.473244"
       cy="19.597878"
       r="3.5153139"
       fx="69.473244"
       fy="19.597878"
       id="radialGradient4363"
       xlink:href="#linearGradient6468"
       gradientUnits="userSpaceOnUse"
       gradientTransform="matrix(1.318488,0,0,1.318488,-22.1264,-6.241691)" />
  </defs>
  <path
     style="fill:#ffff00;stroke:#000000;stroke-width:1.06826281999999995px;stroke-linecap:butt;stroke-linejoin:miter;stroke-opacity:1"
     d="m 35.04147,18.804821 c -0.297374,0.282221 -0.658842,0.514575 -0.892121,0.846663 -0.04431,0.06308 0,1.130974 0,1.269996 0,0.139088 0.04195,0.515576 0,0.634997 -0.05257,0.149671 -0.170462,0.273663 -0.22303,0.423333 -0.05113,0.14559 0.06579,0.510109 0,0.634997 -0.04702,0.08925 -0.176013,0.122421 -0.223031,0.211666 -0.03394,0.06442 0,0.539673 0,0.634998 0,0.423331 0,0.846664 0,1.269996 0,0.282221 0,0.564442 0,0.846663 0,0.07056 0.07435,0.211666 0,0.211666 -0.07435,0 0,-0.28222 0,-0.211666 0,0.351524 0.157706,0.665995 -0.22303,0.846663 -0.0665,0.03155 -0.156536,-0.03155 -0.223031,0 -0.09404,0.04462 -0.128991,0.167044 -0.223029,0.211667 -0.0665,0.03155 -0.156535,-0.03155 -0.22303,0 -0.188076,0.08925 -0.257986,0.334085 -0.446061,0.423332 -0.178424,0.08467 -0.490667,-0.08467 -0.66909,0 -0.239751,0.113767 -0.420214,0.328853 -0.669091,0.423332 -0.06637,0.0252 -1.023699,0 -1.115151,0 -0.163722,0 -1.260427,0.03689 -1.338182,0 -0.09404,-0.04462 -0.128992,-0.167043 -0.22303,-0.211666 -0.07107,-0.03373 -0.915824,0 -1.115151,0 -0.520403,0 -1.040808,0 -1.561212,0 -0.100444,0 -0.601214,-0.03221 -0.66909,0 -0.09404,0.04462 -0.123288,0.180113 -0.22303,0.211666 -0.141056,0.04462 -0.305004,-0.04462 -0.446061,0 -0.09974,0.03155 -0.128992,0.167043 -0.22303,0.211665 -0.0665,0.03155 -0.156535,-0.03155 -0.223031,0 -0.09404,0.04462 -0.123287,0.180114 -0.223029,0.211666 -0.141056,0.04462 -0.305004,-0.04462 -0.446061,0 -0.02239,0.0071 -0.853269,0.791357 -0.89212,0.846665 -0.0922,0.131269 -0.105479,0.311773 -0.22303,0.423331 -0.05257,0.04989 -0.156536,-0.03155 -0.22303,0 -0.197681,0.09381 -0.466064,0.506543 -0.66909,0.634998 -0.138319,0.08751 -0.307744,0.124153 -0.446061,0.211667 -0.09163,0.05796 -0.608007,0.548038 -0.669091,0.634997 -0.09222,0.131269 -0.10548,0.311774 -0.22303,0.423332 -0.05257,0.04989 -0.156536,-0.03155 -0.22303,0 -0.09405,0.04462 -0.148688,0.14111 -0.223031,0.211666 -0.148687,0.14111 -0.277841,0.303595 -0.44606,0.423331 -0.13299,0.09466 -0.307743,0.124154 -0.44606,0.211667 -0.377909,0.239101 -0.215182,0.408434 -0.446061,0.846662 -0.05956,0.113049 -0.551673,0.523564 -0.669091,0.634999 -0.117417,0.111434 -0.609532,0.52195 -0.66909,0.634997 -0.03325,0.06311 0.04124,0.152961 0,0.211666 -0.11664,0.166044 -0.329422,0.257288 -0.446061,0.423332 -0.04124,0.05871 0,0.141111 0,0.211667 0,0.07056 0,0.14111 0,0.211665 0,0.587275 -0.09974,0.598841 0.22303,1.05833 0.05832,0.08302 0.176012,0.12242 0.223031,0.211666 0.105138,0.19956 0.117893,0.435437 0.22303,0.634998 0.04702,0.08924 0.148686,0.14111 0.223031,0.211666 0.07435,0.07055 0.148686,0.14111 0.223029,0.211666 0.511372,0.485314 -0.09404,-0.133869 0.446061,0.634997 0.05832,0.08302 0.176011,0.12242 0.22303,0.211667 0.03325,0.06311 -0.03325,0.148559 0,0.211665 0.09405,0.178493 0.32942,0.257287 0.446061,0.423331 0.09221,0.13127 0.130817,0.292063 0.223029,0.423333 0.05832,0.08302 0.148688,0.141111 0.223031,0.211665 0.07435,0.07056 0.128992,0.167043 0.22303,0.211667 0.0665,0.03155 0.156535,-0.03155 0.22303,0 0.09404,0.04462 0.148687,0.14111 0.223031,0.211666 0.131173,0.12449 0.78884,0.797654 0.89212,0.846663 0.178424,0.08467 0.490666,-0.08467 0.669092,0 0.188075,0.08925 0.2711,0.312636 0.446059,0.423333 0.138317,0.08751 0.307743,0.124152 0.446061,0.211664 0.08749,0.05535 0.123287,0.180114 0.22303,0.211667 0.141056,0.04462 0.297373,0 0.446059,0 0.07435,0 0.156537,-0.03155 0.223031,0 0.219469,0.104143 0.672653,0.742522 0.89212,0.846664 0.05943,0.02821 1.237286,0 1.338182,0 0.07435,0 0.156536,-0.03155 0.22303,0 0.09404,0.04462 0.148688,0.141111 0.22303,0.211665 0.07435,0.07056 0.176012,0.122421 0.223031,0.211666 0.03325,0.06311 -0.03324,0.14856 0,0.211667 0.09884,0.187607 0.533739,0.442315 0.66909,0.634998 1.078703,1.221398 -0.144769,-0.06312 0.22303,0.634997 0.05956,0.113047 0.551673,0.523563 0.669091,0.634999 0.174207,0.165329 0.476638,0.513233 0.669091,0.634997 0.276635,0.175027 0.626142,0.234011 0.892121,0.423332 0.16822,0.119736 0.297374,0.282221 0.44606,0.423331 0.07435,0.07056 0.128993,0.167043 0.22303,0.211666 0.0665,0.03155 0.148687,0 0.223031,0 0.22303,0 0.44606,0 0.66909,0 0.594747,0 1.189495,0 1.784242,0 0.594747,0 1.189495,0 1.784242,0 0.297373,0 0.598793,0.04639 0.892121,0 0.231896,-0.03668 0.458816,-0.111886 0.66909,-0.211666 0.09404,-0.04462 0.148687,-0.14111 0.22303,-0.211665 0.148687,-0.141111 0.329421,-0.257287 0.446061,-0.423332 0.08248,-0.117412 -0.0665,-0.297119 0,-0.423332 0.09404,-0.178493 0.379566,-0.234012 0.446061,-0.423331 0.04702,-0.13387 -0.04702,-0.289464 0,-0.423333 0.03324,-0.09466 0.176011,-0.122419 0.223029,-0.211666 0.03324,-0.06311 -0.03325,-0.148559 0,-0.211666 0.09404,-0.178492 0.352022,-0.244839 0.446061,-0.423331 0.03325,-0.06311 -0.03324,-0.14856 0,-0.211666 0.04702,-0.08924 0.176012,-0.12242 0.22303,-0.211667 0.0665,-0.126212 -0.0665,-0.297119 0,-0.423332 0.04702,-0.08924 0.176011,-0.122419 0.223031,-0.211666 0.03325,-0.06311 0,-0.14111 0,-0.211665 0,-0.141111 -0.04702,-0.289463 0,-0.423332 0.03325,-0.09466 0.148686,-0.14111 0.22303,-0.211666 0,-0.14111 -0.03607,-0.286435 0,-0.423333 0.134859,-0.511949 0.418267,-0.489598 0.66909,-0.846662 0.09221,-0.131271 0.09004,-0.328673 0.22303,-0.423333 0.188075,-0.13387 0.458817,-0.111886 0.669091,-0.211665 0.09404,-0.04462 0.121032,-0.187466 0.22303,-0.211666 0.216371,-0.05134 0.446061,0 0.669091,0 0.07435,0 0.152502,0.02232 0.223031,0 0.311338,-0.09849 0.911558,-0.490084 1.11515,-0.634999 0.247222,-0.175967 0.412239,-0.472486 0.669091,-0.634997 0.138316,-0.08751 0.328513,-0.100104 0.44606,-0.211665 0.05257,-0.04989 -0.04124,-0.152961 0,-0.211667 1.032717,-1.470143 0.105577,0.445881 0.446061,-0.846663 0.08346,-0.316813 0.549169,-0.830707 0.66909,-1.05833 0.03325,-0.06311 -0.03324,-0.14856 0,-0.211666 0.04702,-0.08924 0.176011,-0.122419 0.223031,-0.211666 0.521595,-0.110155 0.13605,-0.599019 0.22303,-0.846663 0.05257,-0.149672 0.182712,-0.270277 0.223031,-0.423332 0.03607,-0.136898 -0.0665,-0.297119 0,-0.423333 0.09404,-0.178491 0.32942,-0.257287 0.446059,-0.423331 0.04124,-0.05871 0,-0.141112 0,-0.211666 0,-0.211666 -0.05409,-0.429653 0,-0.634999 0.02549,-0.0968 0.176011,-0.122419 0.223031,-0.211664 0.03325,-0.06311 0,-0.141112 0,-0.211667 0,-0.141111 0,-0.282222 0,-0.423331 0,-0.493888 0,-0.987776 0,-1.481662 0,-0.09576 0.02971,-1.213587 0,-1.269996 -0.04702,-0.08925 -0.176011,-0.122419 -0.223031,-0.211667 -0.0665,-0.126212 0.0665,-0.297117 0,-0.42333 -0.04702,-0.08925 -0.176011,-0.12242 -0.22303,-0.211667 -0.07092,-0.134606 0.06158,-0.883023 0,-1.058329 -0.03324,-0.09466 -0.19753,-0.114866 -0.223029,-0.211666 -0.128575,-0.488091 0.128573,-1.205236 0,-1.693328 -0.0255,-0.0968 -0.197532,-0.114864 -0.223031,-0.211666 -0.05409,-0.205346 0.08283,-0.43847 0,-0.634997 -0.07809,-0.185288 -0.367967,-0.238045 -0.446061,-0.423333 0,-1.501287 0.157705,-0.123991 -0.22303,-0.846662 -0.04011,-0.07615 0.0013,-1.052194 0,-1.058331 -0.0326,-0.154702 -0.182712,-0.270275 -0.22303,-0.423331 -0.03607,-0.136898 0.04702,-0.289462 0,-0.423331 -0.05641,-0.160612 -0.789633,-0.652132 -0.892121,-0.846665 -0.105139,-0.199561 -0.117893,-0.435438 -0.22303,-0.634997 -0.04702,-0.08925 -0.148688,-0.141112 -0.223031,-0.211667 -0.148687,-0.141109 -0.319895,-0.263683 -0.44606,-0.423332 -0.09974,-0.126213 -0.130819,-0.292061 -0.22303,-0.423331 -0.05832,-0.08302 -0.189782,-0.117007 -0.22303,-0.211666 -0.04702,-0.133869 0.04702,-0.289463 0,-0.423332 -0.03394,-0.09662 -0.568648,-0.539672 -0.66909,-0.634997 -0.07435,-0.07056 -0.121033,-0.187466 -0.223031,-0.211667 -0.216371,-0.05134 -0.446061,0 -0.669091,0 -0.594747,0 -1.189494,0 -1.784241,0 -0.520405,0 -1.040808,0 -1.561212,0 -0.07435,0 -0.148686,0 -0.22303,0 -0.07435,0 -0.156536,-0.03155 -0.223031,0 -0.380123,0.180377 -1.103004,1.462449 -1.11515,1.481662 z"
     id="path3837"
     inkscape:connector-curvature="0" />
  <g
     id="layer1"
     transform="matrix(0.81424681,0,0,0.94068757,0.3165616,-6.8378749)">
    <path
       d="m 41.25,33.9375 a 18.25,5.1875 0 1 1 -36.5,0 18.25,5.1875 0 1 1 36.5,0 z"
       transform="matrix(1,0,0,1.53012,0.125,-19.99096)"
       style="color:#000000;fill:url(#radialGradient6498);fill-opacity:1;fill-rule:evenodd;stroke:none;stroke-width:0.9999997;marker:none;visibility:visible;display:inline;overflow:visible"
       id="path6490"
       inkscape:connector-curvature="0" />
    <path
       d="m 10.374369,12.467884 c 0,0 2.874509,5.927634 9.599242,5.760407 C 34.066126,17.874738 36.53732,10.523341 36.890873,9.4626804 37.244427,8.4020202 37.785407,8.5626825 37.91048,9.5429474 42.506674,51.262247 6.0135488,33.362123 4.7175144,26.256467 11.965359,24.135147 10.197592,20.069282 10.197592,20.069282 l 0.176777,-7.601398 z"
       style="color:#000000;fill:url(#radialGradient4354);fill-opacity:1;fill-rule:evenodd;stroke:#2e3436;stroke-width:0.9999997;stroke-linecap:butt;stroke-linejoin:miter;stroke-miterlimit:10;stroke-opacity:1;stroke-dasharray:none;stroke-dashoffset:0;marker:none;visibility:visible;display:inline;overflow:visible"
       id="path4323"
       inkscape:connector-curvature="0" />
    <path
       d="m 15.73779,30.066049 c 6.7389,1.347837 10.170691,0.09809 12.179175,-1.452776 -0.53033,-0.68501 -1.43631,-1.436311 -1.43631,-1.436311 0,0 2.353317,0.653942 3.18198,1.723573 0.82629,1.066568 0.306808,1.723707 0.09056,3.08837 -0.481411,-1.198599 -1.379981,-1.648092 -1.501634,-2.124332 -1.806268,2.496927 -6.306442,2.3932 -12.513772,0.201476 z"
       style="color:#000000;fill:url(#linearGradient4351);fill-opacity:1;fill-rule:evenodd;stroke:none;stroke-width:0.9999997;marker:none;visibility:visible;display:inline;overflow:visible"
       id="path6480"
       inkscape:connector-curvature="0" />
    <path
       d="m 36.96875,11.84375 c -0.561978,0.926895 -1.406492,2.033166 -2.6875,3.09375 -2.631918,2.179042 -7.050563,4.162347 -14.28125,4.34375 -4.224373,0.105049 -6.952741,-1.934149 -8.625,-3.75 L 11.25,20 c 0.136107,0.418802 0.415455,1.390498 -0.0625,2.71875 -0.514314,1.429296 -2.154514,2.891363 -4.96875,4 0.2503304,0.522033 0.4954845,1.04362 1.25,1.78125 1.0279503,1.004945 2.4570333,2.088049 4.15625,3.0625 3.398433,1.948902 7.801583,3.493212 11.90625,3.5625 4.104667,0.06929 7.857126,-1.23455 10.4375,-5 2.378744,-3.471218 3.682473,-9.347943 3,-18.28125 z"
       style="opacity:0.18539327;color:#000000;fill:none;stroke:url(#linearGradient8530);stroke-width:0.9999997;stroke-linecap:butt;stroke-linejoin:miter;stroke-miterlimit:10;stroke-opacity:1;stroke-dasharray:none;stroke-dashoffset:0;marker:none;visibility:visible;display:inline;overflow:visible"
       id="path8520"
       inkscape:connector-curvature="0" />
    <path
       d="m 72.655224,21.837049 a 3.1819806,3.1819806 0 1 1 -6.363961,0 3.1819806,3.1819806 0 1 1 6.363961,0 z"
       transform="matrix(1.277778,0,0,1.277778,-75.12661,-6.507784)"
       style="color:#000000;fill:url(#radialGradient4363);fill-opacity:1;fill-rule:evenodd;stroke:#888a85;stroke-width:0.78260845;stroke-linecap:butt;stroke-linejoin:miter;stroke-miterlimit:10;stroke-opacity:1;stroke-dasharray:none;stroke-dashoffset:0;marker:none;visibility:visible;display:inline;overflow:visible"
       id="path4357"
       inkscape:connector-curvature="0" />
    <path
       d="m 10.429825,27.228739 a 4.331029,6.098796 0 1 1 -8.662058,0 4.331029,6.098796 0 1 1 8.662058,0 z"
       transform="matrix(0.810984,-0.585069,0.585069,0.810984,-14.77791,6.947121)"
       style="color:#000000;fill:url(#radialGradient8548);fill-opacity:1;fill-rule:evenodd;stroke:#000000;stroke-width:0.9999997;stroke-linecap:butt;stroke-linejoin:miter;stroke-miterlimit:10;stroke-opacity:1;stroke-dasharray:none;stroke-dashoffset:0;marker:none;visibility:visible;display:inline;overflow:visible"
       id="path5198"
       inkscape:connector-curvature="0" />
    <path
       d="m 24.041631,21.837049 a 2.2980971,2.2980971 0 1 1 -4.596194,0 2.2980971,2.2980971 0 1 1 4.596194,0 z"
       transform="matrix(0.851852,0,0,0.851852,-3.926759,3.395528)"
       style="color:#000000;fill:#2e3436;fill-opacity:1;fill-rule:evenodd;stroke:#000000;stroke-width:1.17391276;stroke-linecap:butt;stroke-linejoin:miter;stroke-miterlimit:10;stroke-opacity:1;stroke-dasharray:none;stroke-dashoffset:0;marker:none;visibility:visible;display:inline;overflow:visible"
       id="path4359"
       inkscape:connector-curvature="0" />
    <path
       d="m 6.09375,22.15625 c -0.7982492,0 -1.5531304,0.446171 -2.1875,1.34375 -0.6343696,0.897579 -1.09375,2.234204 -1.09375,3.71875 0,1.484546 0.4593804,2.821171 1.09375,3.71875 0.6343696,0.897579 1.3892511,1.34375 2.1875,1.34375 0.7982492,0 1.5772839,-0.476389 2.21875,-1.375 0.6414661,-0.898611 1.09375,-2.206186 1.09375,-3.6875 0,-1.481314 -0.4522838,-2.788889 -1.09375,-3.6875 -0.6414662,-0.898611 -1.4205011,-1.375 -2.21875,-1.375 z"
       transform="matrix(0.800389,-0.599481,0.599481,0.800389,-15.2744,7.32784)"
       style="opacity:0.28089887;color:#000000;fill:none;stroke:url(#linearGradient6458);stroke-width:1.00000012;stroke-linecap:butt;stroke-linejoin:miter;stroke-miterlimit:10;stroke-opacity:1;stroke-dasharray:none;stroke-dashoffset:0;marker:none;visibility:visible;display:inline;overflow:visible"
       id="path6450"
       inkscape:connector-curvature="0" />
    <path
       d="m 5.833631,23.251263 a 1.767767,2.1213202 0 1 1 -3.5355339,0 1.767767,2.1213202 0 1 1 3.5355339,0 z"
       style="color:#000000;fill:#ffffff;fill-opacity:1;fill-rule:evenodd;stroke:none;stroke-width:0.9999997;marker:none;visibility:visible;display:inline;overflow:visible"
       id="path6446"
       inkscape:connector-curvature="0" />
    <path
       d="m 23.157747,20.953165 a 1.767767,1.767767 0 1 1 -3.535534,0 1.767767,1.767767 0 1 1 3.535534,0 z"
       transform="matrix(0.766666,0,0,0.766666,-2.556414,5.029841)"
       style="color:#000000;fill:#ffffff;fill-opacity:1;fill-rule:evenodd;stroke:none;stroke-width:0.9999997;marker:none;visibility:visible;display:inline;overflow:visible"
       id="path4361"
       inkscape:connector-curvature="0" />
    <path
       d="m 72.655224,21.837049 a 3.1819806,3.1819806 0 1 1 -6.363961,0 3.1819806,3.1819806 0 1 1 6.363961,0 z"
       transform="matrix(1.5,0,0,1.5,-82.16821,-10.91852)"
       style="color:#000000;fill:url(#radialGradient6474);fill-opacity:1;fill-rule:evenodd;stroke:#888a85;stroke-width:0.66666645;stroke-linecap:butt;stroke-linejoin:miter;stroke-miterlimit:10;stroke-opacity:1;stroke-dasharray:none;stroke-dashoffset:0;marker:none;visibility:visible;display:inline;overflow:visible"
       id="path6462"
       inkscape:connector-curvature="0" />
    <path
       d="m 24.041631,21.837049 a 2.2980971,2.2980971 0 1 1 -4.596194,0 2.2980971,2.2980971 0 1 1 4.596194,0 z"
       transform="translate(1.414216,0.707108)"
       style="color:#000000;fill:#2e3436;fill-opacity:1;fill-rule:evenodd;stroke:#000000;stroke-width:0.9999997;stroke-linecap:butt;stroke-linejoin:miter;stroke-miterlimit:10;stroke-opacity:1;stroke-dasharray:none;stroke-dashoffset:0;marker:none;visibility:visible;display:inline;overflow:visible"
       id="path6464"
       inkscape:connector-curvature="0" />
    <path
       d="m 23.157747,20.953165 a 1.767767,1.767767 0 1 1 -3.535534,0 1.767767,1.767767 0 1 1 3.535534,0 z"
       transform="matrix(0.9,0,0,0.9,3.022883,2.625648)"
       style="color:#000000;fill:#ffffff;fill-opacity:1;fill-rule:evenodd;stroke:none;stroke-width:0.9999997;marker:none;visibility:visible;display:inline;overflow:visible"
       id="path6466"
       inkscape:connector-curvature="0" />
    <g
       transform="matrix(-0.114852,-0.389864,0.389864,-0.114852,24.71507,29.68942)"
       id="g8463">
      <path
         d="m -23.364209,23.568336 3.710098,3.469175 C -11.307128,20.656664 -2.5600338,6.9381374 -2.5600338,6.9381374 -0.58371893,4.6957251 -2.6769537,3.1876548 -4.7249404,4.5402186 c 0,0 -12.9703626,10.1148664 -18.6392686,19.0281174 z"
         style="color:#000000;fill:url(#linearGradient6957);fill-opacity:1;fill-rule:nonzero;stroke:#673907;stroke-width:2.46045303;stroke-linecap:round;stroke-linejoin:miter;stroke-miterlimit:4;stroke-opacity:1;stroke-dasharray:none;stroke-dashoffset:0;marker:none;visibility:visible;display:inline;overflow:visible"
         id="path6937"
         inkscape:connector-curvature="0" />
      <path
         d="m -30.449715,32.813894 2.24632,1.93382 8.492766,-7.367031 0.275061,-0.705828 1.094405,-0.01782 c -0.4375,-1.5625 -2.941514,-4.383455 -4.816514,-4.383455 l 0.08202,1.090075 -0.669991,0.380027 -6.704066,9.070207 z"
         style="color:#000000;fill:url(#linearGradient6945);fill-opacity:1;fill-rule:nonzero;stroke:#888a85;stroke-width:2.46045303;stroke-linecap:round;stroke-linejoin:miter;stroke-miterlimit:4;stroke-opacity:1;stroke-dasharray:none;stroke-dashoffset:0;marker:none;visibility:visible;display:inline;overflow:visible"
         id="path6935"
         inkscape:connector-curvature="0" />
      <path
         d="m -23.801371,28.376767 -4.364933,5.266471"
         style="color:#000000;fill:none;stroke:#ffffff;stroke-width:2.46045327;stroke-linecap:round;stroke-linejoin:round;stroke-miterlimit:4;stroke-opacity:1;stroke-dasharray:none;stroke-dashoffset:0;marker:none;visibility:visible;display:inline;overflow:visible"
         id="path6985"
         inkscape:connector-curvature="0" />
      <path
         d="m -45.341208,42.769835 c 10.443958,0 18.370039,1.24373 19.870605,-6.354738 1.209249,-6.123314 -7.210534,-9.057368 -11.38287,-3.590861 -4.019277,5.265971 -8.487735,9.945599 -8.487735,9.945599 z"
         style="color:#000000;fill:url(#radialGradient6969);fill-opacity:1;fill-rule:nonzero;stroke:none;stroke-width:0.2;marker:none;visibility:visible;display:inline;overflow:visible"
         id="path6933"
         inkscape:connector-curvature="0" />
      <path
         d="m 8.8749989,37.75 a 1.2499999,1.2499999 0 1 1 -2.4999997,0 1.2499999,1.2499999 0 1 1 2.4999997,0 z"
         transform="matrix(2.069903,0,0,2.069903,-44.75012,-41.50978)"
         style="opacity:0.52777782;color:#000000;fill:#ffffff;fill-opacity:1;fill-rule:nonzero;stroke:none;stroke-width:1;marker:none;visibility:visible;display:inline;overflow:visible"
         id="path6971"
         inkscape:connector-curvature="0" />
      <path
         d="m 8.8749989,37.75 a 1.2499999,1.2499999 0 1 1 -2.4999997,0 1.2499999,1.2499999 0 1 1 2.4999997,0 z"
         transform="matrix(1.396669,0,0,1.396669,-32.05526,-25.87664)"
         style="color:#000000;fill:#ffffff;fill-opacity:1;fill-rule:nonzero;stroke:none;stroke-width:1;marker:none;visibility:visible;display:inline;overflow:visible"
         id="path6983"
         inkscape:connector-curvature="0" />
      <path
         d="m -38.543723,40.909242 c 0,0 3.72152,0.0943 6.116538,-1.411995 0.847351,-0.532923 1.515774,0.649985 0.493819,1.087367 -2.207394,0.944732 -6.610357,0.324628 -6.610357,0.324628 z"
         style="opacity:0.42777776;color:#000000;fill:url(#linearGradient2452);fill-opacity:1;fill-rule:nonzero;stroke:none;stroke-width:1;marker:none;visibility:visible;display:inline;overflow:visible"
         id="path1571"
         inkscape:connector-curvature="0" />
    </g>
    <path
       d="m 23.003067,31.736544 c 1.497372,0.143092 2.849629,-0.272213 3.411893,-0.474047 0.09822,-0.555386 0.536552,-1.621257 2.046088,-1.691468 l -0.53033,-0.928077 c 0,0 -1.966641,1.347921 -4.065864,1.745669 l -0.861787,1.347923 z"
       style="color:#000000;fill:url(#linearGradient4330);fill-opacity:1;fill-rule:evenodd;stroke:none;stroke-width:0.9999997;marker:none;visibility:visible;display:inline;overflow:visible"
       id="path8532"
       inkscape:connector-curvature="0" />
  </g>
</svg>
